<?xml version="1.0" standalone="no"?>
<svg xmlns:xlink="http://www.w3.org/1999/xlink" id="wave" style="transform:rotate(180deg); transition: 0.3s" viewBox="0 0 1440 430" version="1.1" xmlns="http://www.w3.org/2000/svg"><defs><linearGradient id="sw-gradient-0" x1="0" x2="0" y1="1" y2="0"><stop stop-color="rgba(18.534, 18.015, 17.848, 1)" offset="0%"/><stop stop-color="rgba(187.017, 181.57, 169.529, 1)" offset="100%"/></linearGradient></defs><path style="transform:translate(0, 0px); opacity:1" fill="url(#sw-gradient-0)" d="M0,301L17.1,308.2C34.3,315,69,330,103,315.3C137.1,301,171,258,206,243.7C240,229,274,244,309,215C342.9,186,377,115,411,107.5C445.7,100,480,158,514,179.2C548.6,201,583,186,617,179.2C651.4,172,686,172,720,193.5C754.3,215,789,258,823,272.3C857.1,287,891,272,926,286.7C960,301,994,344,1029,329.7C1062.9,315,1097,244,1131,222.2C1165.7,201,1200,229,1234,215C1268.6,201,1303,143,1337,136.2C1371.4,129,1406,172,1440,207.8C1474.3,244,1509,272,1543,293.8C1577.1,315,1611,330,1646,286.7C1680,244,1714,143,1749,114.7C1782.9,86,1817,129,1851,129C1885.7,129,1920,86,1954,93.2C1988.6,100,2023,158,2057,186.3C2091.4,215,2126,215,2160,200.7C2194.3,186,2229,158,2263,129C2297.1,100,2331,72,2366,93.2C2400,115,2434,186,2451,222.2L2468.6,258L2468.6,430L2451.4,430C2434.3,430,2400,430,2366,430C2331.4,430,2297,430,2263,430C2228.6,430,2194,430,2160,430C2125.7,430,2091,430,2057,430C2022.9,430,1989,430,1954,430C1920,430,1886,430,1851,430C1817.1,430,1783,430,1749,430C1714.3,430,1680,430,1646,430C1611.4,430,1577,430,1543,430C1508.6,430,1474,430,1440,430C1405.7,430,1371,430,1337,430C1302.9,430,1269,430,1234,430C1200,430,1166,430,1131,430C1097.1,430,1063,430,1029,430C994.3,430,960,430,926,430C891.4,430,857,430,823,430C788.6,430,754,430,720,430C685.7,430,651,430,617,430C582.9,430,549,430,514,430C480,430,446,430,411,430C377.1,430,343,430,309,430C274.3,430,240,430,206,430C171.4,430,137,430,103,430C68.6,430,34,430,17,430L0,430Z"/></svg>